<svg xmlns="http://www.w3.org/2000/svg" xmlns:xlink="http://www.w3.org/1999/xlink" version="1.1" x="0px" y="0px" viewBox="0 0 100 125" enable-background="new 0 0 100 100" xml:space="preserve"><path d="M50,5C25.146,5,5,25.146,5,50s20.146,45,45,45s45-20.146,45-45S74.854,5,50,5z M50,82c-17.644,0-32-14.355-32-32  c0-17.644,14.355-32,32-32c17.645,0,32,14.355,32,32C82,67.645,67.645,82,50,82z M50,56c-3.315,0-6-2.686-6-6c0-3.315,2.685-6,6-6  c3.314,0,6,2.685,6,6C56,53.314,53.314,56,50,56z M50,23c3.055,0,6.297,0.837,6.297,0.837c1.33,0.347,1.855,1.602,1.166,2.793  l-6.211,10.737c-0.688,1.189-1.813,1.189-2.502-0.002l-6.194-10.742c-0.688-1.191-0.161-2.446,1.169-2.791  C43.726,23.833,46.953,23,50,23z M48.748,62.632c0.688-1.188,1.814-1.188,2.502,0.003l6.196,10.742  c0.688,1.191,0.161,2.445-1.172,2.79c0,0-3.228,0.833-6.274,0.833c-3.054,0-6.296-0.838-6.296-0.838  c-1.331-0.347-1.855-1.602-1.167-2.793L48.748,62.632z M26.619,36.499c1.526-2.644,3.875-5.032,3.875-5.032  c0.962-0.979,2.312-0.808,2.998,0.383l6.194,10.747c0.686,1.191,0.125,2.168-1.252,2.168l-12.4-0.007  c-1.375,0-2.197-1.084-1.831-2.41C24.202,42.349,25.095,39.141,26.619,36.499z M60.314,57.402c-0.686-1.191-0.124-2.168,1.253-2.168  l12.399,0.005c1.377,0,2.2,1.084,1.832,2.412c0,0-0.895,3.208-2.418,5.85c-1.525,2.644-3.874,5.032-3.874,5.032  c-0.962,0.979-2.312,0.808-2.998-0.384L60.314,57.402z M26.619,63.501c-1.528-2.646-2.422-5.874-2.422-5.874  c-0.369-1.323,0.457-2.404,1.833-2.402l12.402,0.01c1.375,0,1.938,0.972,1.25,2.168l-6.206,10.732c-0.686,1.191-2.036,1.362-3,0.381  C30.476,68.516,28.142,66.138,26.619,63.501z M61.567,44.768c-1.374-0.002-1.938-0.974-1.25-2.168l6.204-10.735  c0.688-1.194,2.038-1.365,3.002-0.381c0,0,2.334,2.378,3.857,5.017c1.529,2.644,2.422,5.872,2.422,5.872  c0.369,1.323-0.456,2.407-1.83,2.405L61.567,44.768z"/><text x="0" y="115" fill="#000000" font-size="5px" font-weight="bold" font-family="'Helvetica Neue', Helvetica, Arial-Unicode, Arial, Sans-serif"></text><text x="0" y="120" fill="#000000" font-size="5px" font-weight="bold" font-family="'Helvetica Neue', Helvetica, Arial-Unicode, Arial, Sans-serif"></text></svg>